# xmcd CD database file
# Copyright (C) 1997 Ti Kan
# 
# Track frame offsets:
#     150
#     12100
#     26377
#     39702
#     53515
#     69060
#     81292
#     95495
#     108137
#     119192
#     130922
#     144062
#     153405
#     165717
#     180890
# 
# Disc length: 2576 seconds
# 
# Revision: 1
# Processed by: cddbd v1.4b41PL1 Copyright (c) Steve Scherf et al.
# Submitted via: DiscPlay 4.0.3
# 
DISCID=b00a0e0f
DTITLE=Ernest Tubb - The Ernest Tubb Collection With Guest * Part II
DYEAR=1900
DGENRE=
TTITLE0=Thanks A Lot
TTITLE1=It's Been So Long Darling
TTITLE2=Blue Eyed Elaine
TTITLE3=Our Baby's Book
TTITLE4=Soldier's Last Letter
TTITLE5=There's A Little Bit of Everything in Texas
TTITLE6=Tomorrow Never Comes
TTITLE7=Sweet Thang
TTITLE8=I'll Step Aside
TTITLE9=When You Feel Like You're In Love
TTITLE10=Driftwood On the River
TTITLE11=Have You Ever Been Lonely
TTITLE12=Yesterday's Winner is a Loser Today
TTITLE13=I'm With A Crowd but So Alone
TTITLE14=Drivin' Nails In My Coffin
EXTD=
EXTT0=
EXTT1=
EXTT2=
EXTT3=
EXTT4=
EXTT5=
EXTT6=
EXTT7=
EXTT8=
EXTT9=
EXTT10=
EXTT11=
EXTT12=
EXTT13=
EXTT14=
PLAYORDER=
